# xmcd
#
# Track frame offsets: 
#        150
#        15580
#        31992
#        49208
#        67632
#        86203
#        104918
#        117963
#
# Disc length: 1888 seconds
#
# Revision: 0
# Processed by: cddbd v1.5.2PL0 Copyright (c) Steve Scherf et al.
# Submitted via: ExactAudioCopy v0.99pb3
#
DISCID=65075e08
DTITLE=Amanda Drake and the Barnburners - Amanda Drake and the Barnbur
DTITLE=ners
DYEAR=1900
DGENRE=Country
TTITLE0=Stand
TTITLE1=Here In My Arms
TTITLE2=My Love
TTITLE3=I Need You
TTITLE4=Tailgate Song
TTITLE5=Windows and Doors
TTITLE6=Drive My Car
TTITLE7=Damn That Bottle (Of Whiskey)
EXTD=
EXTT0=
EXTT1=
EXTT2=
EXTT3=
EXTT4=
EXTT5=
EXTT6=
EXTT7=
PLAYORDER=
